<svg xmlns="http://www.w3.org/2000/svg" viewBox="0 0 497.6 663.5"><title>ico_event</title><path d="M0,0V663.5H497.6V165.9L331.7,0H0Z" style="fill:#f0efef"/><path d="M331.7,165V0L497.6,165.9Z" style="fill:#fff;opacity:0.6499999761581421;isolation:isolate"/><path d="M456.1,207.3V414.6L290.3,207.3H456.1Z" style="fill:#010101;opacity:0.20000000298023224;isolation:isolate"/><path d="M0,0V663.5H497.6V165.9h-0.5l0.2-.3L332.1,0.2l-0.3.3V0H0ZM41.5,41.5H290.3V207.4H456.2V622H41.5V41.5Zm290.2,17L439,165.9H331.7V58.5Z" style="fill:#989898"/><path d="M99,571.89V259.33H281v48.22H168.65v79h99.65v47.78H168.65v89.3H281v48.22H99v0Z" style="fill:#444"/></svg>