<svg id="Layer_1" data-name="Layer 1" xmlns="http://www.w3.org/2000/svg" viewBox="0 0 16 16"><defs><style>.cls-1{fill:#efefef;}.cls-2{fill:#fff;opacity:0.65;}.cls-2,.cls-3{isolation:isolate;}.cls-3{opacity:0.2;}.cls-4{fill:#999;}.cls-5{fill:#616161;}</style></defs><title>ico_product</title><path class="cls-1" d="M2,0V16H14V4L10,0Z"/><path class="cls-2" d="M10,4V0l4,4Z"/><path class="cls-3" d="M13,5v5L9,5Z"/><path class="cls-4" d="M2,0V16H14V4h0L10,0H2ZM3,1H9V5h4V15H3Zm7,.41L12.59,4H10Z"/><path class="cls-5" d="M8.86,8.7a4,4,0,0,1-.15,1.18,2,2,0,0,1-.44.78,1.66,1.66,0,0,1-.74.42,3.44,3.44,0,0,1-1,.13H5.91v2.56H4.46V6.34l.64-.06.63,0,.68,0A3.62,3.62,0,0,1,7.6,6.4a1.76,1.76,0,0,1,.76.47,1.91,1.91,0,0,1,.39.78A4.77,4.77,0,0,1,8.86,8.7Zm-1.47.08a2.12,2.12,0,0,0-.17-.95A.63.63,0,0,0,6.6,7.5a3.12,3.12,0,0,0-.52,0l-.17,0V10h.67a.69.69,0,0,0,.59-.32,1.54,1.54,0,0,0,.22-.86Z"/></svg>