<svg xmlns="http://www.w3.org/2000/svg" viewBox="0 0 497.6 663.5"><title>ico_product</title><path d="M0,0V663.5H497.6V165.9L331.7,0H0Z" style="fill:#f0efef"/><path d="M331.7,165V0L497.6,165.9Z" style="fill:#fff;opacity:0.6499999761581421;isolation:isolate"/><path d="M456.1,207.3V414.6L290.3,207.3H456.1Z" style="fill:#010101;opacity:0.20000000298023224;isolation:isolate"/><path d="M0,0V663.5H497.6V165.9h-0.5l0.2-.3L332.1,0.2l-0.3.3V0H0ZM41.5,41.5H290.3V207.4H456.2V622H41.5V41.5Zm290.2,17L439,165.9H331.7V58.5Z" style="fill:#989898"/><path d="M284.3,360.13q0,29.47-6.25,49.56t-18.75,32.59a70.81,70.81,0,0,1-31,17.86q-18.53,5.36-42.64,5.36H160.17V573.11H99V260.56q12.95-.89,27.24-2.23,12.06-.89,26.57-1.56t28.35-.67q30.36,0,50.23,6.92t31.7,20.09q11.82,13.18,16.52,32.6T284.3,360.13Zm-62.06,3.13q0-26.34-6.92-40t-26.12-13.62q-14.3,0-21.88,1.34-4.47.9-7.14,1.34V412.81H188.3q15.62,0,24.78-13.39T222.24,363.25Z" style="fill:#444"/></svg>